<svg xmlns="http://www.w3.org/2000/svg" width="100" height="90.426"><path d="M98.404 0H1.596A1.596 1.596 0 0 0 0 1.596V88.83c0 .881.714 1.596 1.596 1.596h96.808A1.596 1.596 0 0 0 100 88.83V71.809c0-.882-.714-1.596-1.596-1.596a1.596 1.596 0 0 0-1.595 1.596v15.425H3.19V15.957H96.81v49.469a1.596 1.596 0 0 0 1.595 1.595c.882 0 1.596-.714 1.596-1.595V1.596A1.596 1.596 0 0 0 98.404 0ZM3.191 3.191h59.043v9.575H3.191V3.191Zm62.235 9.575V3.191h31.383v9.575H65.426Z" fill="#fff" fill-rule="evenodd" data-name="Path 1613"/></svg>